<svg width="56" height="56" viewBox="0 0 56 56" fill="none" xmlns="http://www.w3.org/2000/svg">
  <path
    d="M44 12H12C10.8954 12 10 12.8954 10 14V34C10 35.1046 10.8954 36 12 36H18L24 42L30 36H44C45.1046 36 46 35.1046 46 34V14C46 12.8954 45.1046 12 44 12Z"
    fill="currentColor"
    fillOpacity="0.2"
  />
  <path
    d="M44 12H12C10.8954 12 10 12.8954 10 14V34C10 35.1046 10.8954 36 12 36H18L24 42L30 36H44C45.1046 36 46 35.1046 46 34V14C46 12.8954 45.1046 12 44 12Z"
    stroke="currentColor"
    strokeWidth="2"
    strokeLinecap="round"
    strokeLinejoin="round"
  />
  <path
    d="M19 21H37"
    stroke="currentColor"
    strokeWidth="2"
    strokeLinecap="round"
    strokeLinejoin="round"
  />
  <path
    d="M19 27H28"
    stroke="currentColor"
    strokeWidth="2"
    strokeLinecap="round"
    strokeLinejoin="round"
  />
</svg> 